<?xml version="1.0" encoding="UTF-8"?>
<svg version="1.1" xmlns="http://www.w3.org/2000/svg" width="437" height="437">
<path d="M0 0 C0.82975342 0.00354492 1.65950684 0.00708984 2.5144043 0.01074219 C9.70657036 0.20359537 15.47516949 1.91875527 21.75 5.5 C22.76900391 6.07041016 22.76900391 6.07041016 23.80859375 6.65234375 C25.5 7.6875 25.5 7.6875 27.75 9.5 C27.75 10.16 27.75 10.82 27.75 11.5 C28.74 11.83 29.73 12.16 30.75 12.5 C32.35546875 14.49609375 32.35546875 14.49609375 33.9375 16.9375 C34.46730469 17.74058594 34.99710937 18.54367188 35.54296875 19.37109375 C36.75 21.5 36.75 21.5 36.75 23.5 C37.65621094 23.16226563 38.56242187 22.82453125 39.49609375 22.4765625 C40.71425781 22.03054687 41.93242187 21.58453125 43.1875 21.125 C44.97994141 20.46371094 44.97994141 20.46371094 46.80859375 19.7890625 C51.04026516 18.31898664 55.36483593 17.38897806 59.75 16.5 C67.51595745 36.03191489 67.51595745 36.03191489 69.75 44.5 C70.41 44.5 71.07 44.5 71.75 44.5 C71.976875 43.81164062 72.20375 43.12328125 72.4375 42.4140625 C74.05533166 38.82209102 76.30855274 35.93029686 78.75 32.875 C82.37493987 28.28052804 82.37493987 28.28052804 85.75 23.5 C89.22036522 24.92819961 90.80238117 26.55952037 92.9140625 29.6328125 C93.47867188 30.43847656 94.04328125 31.24414062 94.625 32.07421875 C95.2025 32.91597656 95.78 33.75773437 96.375 34.625 C97.52785612 36.29841891 98.68641218 37.96793027 99.8515625 39.6328125 C100.61460693 40.74487061 100.61460693 40.74487061 101.39306641 41.87939453 C102.06474854 42.68159424 102.06474854 42.68159424 102.75 43.5 C103.41 43.5 104.07 43.5 104.75 43.5 C108.05 34.59 111.35 25.68 114.75 16.5 C124.875 18.75 124.875 18.75 129.75 20.5 C129.019181 25.44861737 127.16011974 29.87881261 125.328125 34.5 C124.9862616 35.37213135 124.64439819 36.2442627 124.29217529 37.14282227 C123.1986684 39.93009282 122.09949775 42.71508794 121 45.5 C120.27565139 47.34229452 119.55168922 49.18474102 118.828125 51.02734375 C117.77300758 53.71408233 116.71760624 56.40070432 115.66052246 59.08666992 C112.98863151 65.8778467 110.35262878 72.68193481 107.75 79.5 C106.43 79.5 105.11 79.5 103.75 79.5 C101.92578125 77.515625 101.92578125 77.515625 100.0625 74.75 C99.37800781 73.75871094 98.69351563 72.76742187 97.98828125 71.74609375 C97.24964844 70.67488281 96.51101563 69.60367188 95.75 68.5 C94.10477095 66.25451085 92.42959236 64.03235512 90.75 61.8125 C89.986875 60.79800781 89.22375 59.78351563 88.4375 58.73828125 C87.880625 57.99964844 87.32375 57.26101562 86.75 56.5 C82.86333701 60.28663857 79.2746106 64.25102668 75.75 68.375 C75.24210937 68.96152344 74.73421875 69.54804688 74.2109375 70.15234375 C71.63642801 73.15593816 69.23976887 76.18254069 67 79.4453125 C66.2575 80.45335937 65.515 81.46140625 64.75 82.5 C64.09 82.5 63.43 82.5 62.75 82.5 C55.53755297 66.92268684 48.52575464 51.27226565 41.75 35.5 C41.80800781 36.35980469 41.86601562 37.21960938 41.92578125 38.10546875 C42.37541304 49.88582162 40.13753794 59.03462684 32.3125 68.0625 C29.03352605 71.4234483 25.89067626 74.27817371 21.75 76.5 C21.09 76.5 20.43 76.5 19.75 76.5 C19.915 76.995 20.08 77.49 20.25 78 C20.95688818 81.53444089 20.81005155 84.89690701 20.75 88.5 C14.25 91.5 14.25 91.5 9.75 91.5 C9.481875 92.28375 9.21375 93.0675 8.9375 93.875 C7.75 96.5 7.75 96.5 4.75 98.5 C0.64956517 99.08146129 -3.05399225 99.12790407 -6.75 97.1875 C-8.25 95.5 -8.25 95.5 -9.25 92.5 C-11.31758629 91.54998712 -11.31758629 91.54998712 -13.75 90.9375 C-16.21875 90.24609375 -16.21875 90.24609375 -18.25 89.5 C-19.25 87.5 -19.25 87.5 -18.9609375 85.6171875 C-18.55965913 82.9388877 -18.52999081 81.12591586 -19.25 78.5 C-21.7504477 76.2071707 -24.43433631 74.50575151 -27.28125 72.6640625 C-35.18852764 66.90007327 -40.1496225 58.06760742 -41.74609375 48.5390625 C-43.20499189 35.875225 -40.06411944 25.24791847 -32.46484375 15.12109375 C-28.05989244 9.80537716 -23.58201879 6.24521068 -17.25 3.5 C-16.67668945 3.24250977 -16.10337891 2.98501953 -15.51269531 2.71972656 C-10.28923976 0.53744831 -5.63582838 -0.04358634 0 0 Z M46.75 26.5 C49.19357049 34.21045552 52.17256539 41.64773182 55.25 49.125 C55.73597656 50.31351563 56.22195313 51.50203125 56.72265625 52.7265625 C59.02081453 58.33732496 61.33600684 63.93802927 63.75 69.5 C64.41 69.5 65.07 69.5 65.75 69.5 C63.51815494 61.1242116 60.38293547 53.14906932 57.13427734 45.12866211 C56.24092339 42.91500896 55.36456554 40.69506598 54.48828125 38.47460938 C53.92029565 37.06469088 53.35132187 35.65516999 52.78125 34.24609375 C52.52178589 33.58266464 52.26232178 32.91923553 51.99499512 32.23570251 C51.33011483 30.6202119 50.54847755 29.05380479 49.75 27.5 C48.76 27.17 47.77 26.84 46.75 26.5 Z " fill="#FBE120" transform="translate(261.25,138.5)"/>
<path d="M0 0 C2.97187489 2.51873005 4.07489845 5.16564928 5.48046875 8.76171875 C5.92197266 9.87998047 6.36347656 10.99824219 6.81835938 12.15039062 C7.27017578 13.31763672 7.72199219 14.48488281 8.1875 15.6875 C8.65091797 16.86634766 9.11433594 18.04519531 9.59179688 19.25976562 C10.73488375 22.17051261 11.87062889 25.08390993 13 28 C16.42837073 24.71447805 19.28768587 21.39348319 22 17.5 C24.76358694 13.62155697 27.47525552 10.19429968 31 7 C35.22098658 11.81593276 39.12654455 16.74772268 42.875 21.9375 C43.37257813 22.62134766 43.87015625 23.30519531 44.3828125 24.00976562 C45.5911755 25.67126475 46.79597222 27.33535661 48 29 C52.96168855 19.56733936 57.04122037 9.88523671 61 0 C66.2455634 1.47322206 71.44336875 3.06861081 76.5625 4.9375 C77.38878906 5.23527344 78.21507812 5.53304687 79.06640625 5.83984375 C81 7 81 7 81.72729492 8.81130981 C82.06631719 11.53225189 81.51103402 12.73565586 80.296875 15.17919922 C79.89895752 15.99460175 79.50104004 16.81000427 79.09106445 17.65011597 C78.64851318 18.52612457 78.20596191 19.40213318 77.75 20.3046875 C77.07360474 21.67803757 77.07360474 21.67803757 76.38354492 23.07913208 C74.93344706 26.01672816 73.4670002 28.94581416 72 31.875 C71.04188628 33.80936005 70.08484313 35.74425076 69.12890625 37.6796875 C66.43420329 43.1272951 63.71959789 48.564788 61 54 C60.24988383 55.50156958 59.49987551 57.00319304 58.75 58.50488281 C57.16856504 61.67087373 55.58511765 64.83585089 54 68 C50.91405466 66.66544809 49.22994712 65.37427237 47.265625 62.65625 C46.77739258 61.99109375 46.28916016 61.3259375 45.78613281 60.640625 C45.02574707 59.58101562 45.02574707 59.58101562 44.25 58.5 C43.18877074 57.0511517 42.12626829 55.60323512 41.0625 54.15625 C40.28519531 53.09470703 40.28519531 53.09470703 39.4921875 52.01171875 C36.45037 47.91083914 33.23079924 43.9529779 30 40 C28.77041097 41.4996538 27.54137333 42.99975967 26.3125 44.5 C25.50167969 45.48613281 24.69085938 46.47226563 23.85546875 47.48828125 C21.74560518 50.06750485 19.67423826 52.67452548 17.61328125 55.29296875 C16.7473938 56.38351563 16.7473938 56.38351563 15.86401367 57.49609375 C14.71234477 58.94736149 13.56784911 60.40435303 12.4309082 61.8671875 C11.63366333 62.86685547 11.63366333 62.86685547 10.8203125 63.88671875 C10.34867676 64.48701904 9.87704102 65.08731934 9.39111328 65.70581055 C8 67 8 67 5 67 C-0.69416902 55.29531924 -6.09395897 43.46036375 -11.40356445 31.57727051 C-12.13341741 29.94489285 -12.86502102 28.31329678 -13.59838867 26.68249512 C-14.64381617 24.35576274 -15.68221915 22.02601947 -16.71875 19.6953125 C-17.03505371 18.99385101 -17.35135742 18.29238953 -17.67724609 17.56967163 C-19.22370607 14.07010066 -20.44574423 10.79444967 -21 7 C-14.10774203 4.29715374 -7.08849683 2.12871018 0 0 Z M-11 10 C-9.1119956 15.8798035 -7.02094076 21.61744363 -4.64453125 27.31640625 C-4.33803146 28.05833725 -4.03153168 28.80026825 -3.71574402 29.56468201 C-2.75086271 31.89848703 -1.78176602 34.23051311 -0.8125 36.5625 C-0.15141111 38.15938866 0.50939861 39.75639292 1.16992188 41.35351562 C2.77672976 45.23701846 4.38731654 49.11893362 6 53 C6.66 53 7.32 53 8 53 C7.37629965 47.77792703 5.72881319 43.3851706 3.7265625 38.57421875 C3.23994644 37.39192436 3.23994644 37.39192436 2.74349976 36.18574524 C2.05918676 34.52960839 1.37151149 32.87485726 0.68066406 31.22143555 C-0.37674634 28.68330822 -1.41532228 26.13799386 -2.453125 23.59179688 C-3.12126426 21.98130092 -3.79049699 20.37125807 -4.4609375 18.76171875 C-4.77042328 17.99824631 -5.07990906 17.23477386 -5.39877319 16.44816589 C-6.18323477 14.5949263 -7.08273656 12.79122995 -8 11 C-8.99 10.67 -9.98 10.34 -11 10 Z " fill="#FE0075" transform="translate(127,154)"/>
<path d="M0 0 C7.76595745 19.53191489 7.76595745 19.53191489 10 28 C10.66 28 11.32 28 12 28 C12.226875 27.31164062 12.45375 26.62328125 12.6875 25.9140625 C14.30533166 22.32209102 16.55855274 19.43029686 19 16.375 C22.62493987 11.78052804 22.62493987 11.78052804 26 7 C29.47036522 8.42819961 31.05238117 10.05952037 33.1640625 13.1328125 C33.72867188 13.93847656 34.29328125 14.74414062 34.875 15.57421875 C35.4525 16.41597656 36.03 17.25773437 36.625 18.125 C37.77785612 19.79841891 38.93641218 21.46793027 40.1015625 23.1328125 C40.86460693 24.24487061 40.86460693 24.24487061 41.64306641 25.37939453 C42.09085449 25.91419434 42.53864258 26.44899414 43 27 C43.66 27 44.32 27 45 27 C48.3 18.09 51.6 9.18 55 0 C65.125 2.25 65.125 2.25 70 4 C69.269181 8.94861737 67.41011974 13.37881261 65.578125 18 C65.2362616 18.87213135 64.89439819 19.7442627 64.54217529 20.64282227 C63.4486684 23.43009282 62.34949775 26.21508794 61.25 29 C60.52565139 30.84229452 59.80168922 32.68474102 59.078125 34.52734375 C58.02300758 37.21408233 56.96760624 39.90070432 55.91052246 42.58666992 C53.23863151 49.3778467 50.60262878 56.18193481 48 63 C46.68 63 45.36 63 44 63 C42.17578125 61.015625 42.17578125 61.015625 40.3125 58.25 C39.28576172 56.76306641 39.28576172 56.76306641 38.23828125 55.24609375 C37.49964844 54.17488281 36.76101563 53.10367188 36 52 C34.35477095 49.75451085 32.67959236 47.53235512 31 45.3125 C30.236875 44.29800781 29.47375 43.28351563 28.6875 42.23828125 C28.130625 41.49964844 27.57375 40.76101562 27 40 C23.11333701 43.78663857 19.5246106 47.75102668 16 51.875 C15.23816406 52.75478516 15.23816406 52.75478516 14.4609375 53.65234375 C11.88642801 56.65593816 9.48976887 59.68254069 7.25 62.9453125 C6.13625 64.45738281 6.13625 64.45738281 5 66 C4.34 66 3.68 66 3 66 C-3.14391979 52.89893855 -9.08281597 39.71138465 -14.79168701 26.41525269 C-15.43065455 24.92986987 -16.07295204 23.4459151 -16.71856689 21.96340942 C-17.62933435 19.86892577 -18.52726402 17.76939473 -19.421875 15.66796875 C-19.83664597 14.72257736 -19.83664597 14.72257736 -20.25979614 13.75808716 C-22.11438005 9.34314015 -22.11438005 9.34314015 -21 6 C-19.28173828 5.10864258 -19.28173828 5.10864258 -17.0703125 4.39453125 C-16.27496094 4.13349609 -15.47960937 3.87246094 -14.66015625 3.60351562 C-13.82355469 3.34248047 -12.98695313 3.08144531 -12.125 2.8125 C-10.88169922 2.40354492 -10.88169922 2.40354492 -9.61328125 1.98632812 C-3.45018797 0 -3.45018797 0 0 0 Z M-13 10 C-10.55642951 17.71045552 -7.57743461 25.14773182 -4.5 32.625 C-4.01402344 33.81351563 -3.52804687 35.00203125 -3.02734375 36.2265625 C-0.72918547 41.83732496 1.58600684 47.43802927 4 53 C4.66 53 5.32 53 6 53 C3.76815494 44.6242116 0.63293547 36.64906932 -2.61572266 28.62866211 C-3.50907661 26.41500896 -4.38543446 24.19506598 -5.26171875 21.97460938 C-5.82970435 20.56469088 -6.39867813 19.15516999 -6.96875 17.74609375 C-7.22821411 17.08266464 -7.48767822 16.41923553 -7.75500488 15.73570251 C-8.41988517 14.1202119 -9.20152245 12.55380479 -10 11 C-10.99 10.67 -11.98 10.34 -13 10 Z " fill="#FE0075" transform="translate(321,155)"/>
<path d="M0 0 C0.82975342 0.00354492 1.65950684 0.00708984 2.5144043 0.01074219 C9.70657036 0.20359537 15.47516949 1.91875527 21.75 5.5 C22.76900391 6.07041016 22.76900391 6.07041016 23.80859375 6.65234375 C25.5 7.6875 25.5 7.6875 27.75 9.5 C27.75 10.16 27.75 10.82 27.75 11.5 C28.74 11.83 29.73 12.16 30.75 12.5 C39.51617917 24.01557173 43.02420684 35.04899541 41.75 49.5 C39.25825244 60.24490169 33.34427119 68.7717688 24.3125 75.125 C21.75 76.5 21.75 76.5 19.75 76.5 C19.915 76.995 20.08 77.49 20.25 78 C20.95688818 81.53444089 20.81005155 84.89690701 20.75 88.5 C14.25 91.5 14.25 91.5 9.75 91.5 C9.481875 92.28375 9.21375 93.0675 8.9375 93.875 C7.75 96.5 7.75 96.5 4.75 98.5 C0.64956517 99.08146129 -3.05399225 99.12790407 -6.75 97.1875 C-8.25 95.5 -8.25 95.5 -9.25 92.5 C-11.31758629 91.54998712 -11.31758629 91.54998712 -13.75 90.9375 C-16.21875 90.24609375 -16.21875 90.24609375 -18.25 89.5 C-19.25 87.5 -19.25 87.5 -18.9609375 85.6171875 C-18.55965913 82.9388877 -18.52999081 81.12591586 -19.25 78.5 C-21.7504477 76.2071707 -24.43433631 74.50575151 -27.28125 72.6640625 C-35.18852764 66.90007327 -40.1496225 58.06760742 -41.74609375 48.5390625 C-43.20499189 35.875225 -40.06411944 25.24791847 -32.46484375 15.12109375 C-28.05989244 9.80537716 -23.58201879 6.24521068 -17.25 3.5 C-16.67668945 3.24250977 -16.10337891 2.98501953 -15.51269531 2.71972656 C-10.28923976 0.53744831 -5.63582838 -0.04358634 0 0 Z M-30.5625 19.375 C-31.48403131 20.73291104 -32.38094197 22.10792224 -33.25 23.5 C-33.66378906 24.10714844 -34.07757813 24.71429688 -34.50390625 25.33984375 C-38.85147038 32.98973882 -38.43124011 43.01052665 -37.25 51.5 C-34.55465022 60.6091018 -28.80096479 68.20076387 -20.62109375 73.0625 C-9.50324238 78.7589828 2.91287477 79.16397251 14.93359375 75.6640625 C23.84630799 71.98030543 30.3142204 65.99436706 34.75 57.5 C35.08773437 56.88769531 35.42546875 56.27539062 35.7734375 55.64453125 C39.63798721 47.33043118 38.84170732 36.35191748 35.84765625 27.87109375 C31.25220207 17.94425856 24.05275942 10.8390568 14.25 6.0625 C-2.31564892 0.08333609 -19.77791685 5.80642671 -30.5625 19.375 Z " fill="#FEFDF9" transform="translate(261.25,138.5)"/>
<path d="M0 0 C2 1 2 1 2.6328125 2.65234375 C5.18469419 14.5003659 6.31023902 29.19835556 0 40 C-2.96223303 44.03274299 -5.79516233 46.46451659 -10.375 48.5 C-14.76949409 49.10613712 -18.64724444 48.73039436 -23 48 C-23 47.01 -23 46.02 -23 45 C-21.49609375 43.74609375 -21.49609375 43.74609375 -19.4375 42.4375 C-14.39975566 38.87246523 -11.06343197 34.32271306 -8 29 C-8 28.34 -8 27.68 -8 27 C-8.495 27.845625 -8.99 28.69125 -9.5 29.5625 C-12.27484368 33.75982672 -16.04152747 36.93829814 -20 40 C-20.33 40 -20.66 40 -21 40 C-21.10957031 38.90300781 -21.21914062 37.80601562 -21.33203125 36.67578125 C-21.49155666 35.22128484 -21.65174813 33.76686137 -21.8125 32.3125 C-21.88275391 31.59126953 -21.95300781 30.87003906 -22.02539062 30.12695312 C-22.53824224 25.63437298 -23.56140455 22.87799563 -26 19 C-23.44688981 11.34066944 -9.18973456 5.1859345 -2.36328125 1.1171875 C-1.58339844 0.74851563 -0.80351563 0.37984375 0 0 Z M-6 21 C-5 23 -5 23 -5 23 Z M-7 24 C-6 26 -6 26 -6 26 Z " fill="#FE0075" transform="translate(93,144)"/>
<path d="M0 0 C2.44179441 0.88508297 3.62993027 1.93360534 5.44506836 3.77978516 C6.0502832 4.39015625 6.65549805 5.00052734 7.27905273 5.62939453 C7.89973633 6.27070313 8.52041992 6.91201172 9.15991211 7.57275391 C9.78446289 8.20246094 10.40901367 8.83216797 11.05249023 9.48095703 C17.6850215 16.2267439 17.6850215 16.2267439 19.09741211 18.76025391 C19.06616211 20.81884766 19.06616211 20.81884766 18.09741211 22.76025391 C10.59362536 28.84963641 1.24999043 32.44247665 -8.41430664 32.11181641 C-15.17747178 31.15626717 -20.60580127 28.06804914 -24.90258789 22.76025391 C-28.64146585 17.3453272 -28.20648887 12.08589648 -27.90258789 5.76025391 C-27.49008789 6.13537109 -27.07758789 6.51048828 -26.65258789 6.89697266 C-20.98941068 11.91545781 -15.52992426 16.53301812 -7.90258789 17.76025391 C-8.82491211 17.25365234 -8.82491211 17.25365234 -9.76586914 16.73681641 C-10.57411133 16.29080078 -11.38235352 15.84478516 -12.21508789 15.38525391 C-13.0155957 14.94439453 -13.81610352 14.50353516 -14.64086914 14.04931641 C-16.43786732 13.02512055 -18.18159497 11.90758252 -19.90258789 10.76025391 C-19.90258789 9.77025391 -19.90258789 8.78025391 -19.90258789 7.76025391 C-19.27352539 7.68548828 -18.64446289 7.61072266 -17.99633789 7.53369141 C-11.92533671 6.60109785 -8.25069805 5.04672846 -3.69165039 0.90478516 C-1.90258789 -0.23974609 -1.90258789 -0.23974609 0 0 Z " fill="#61CBF8" transform="translate(94.902587890625,189.23974609375)"/>
<path d="M0 0 C-0.32484375 1.32451172 -0.32484375 1.32451172 -0.65625 2.67578125 C-2.41626448 10.26176961 -3.4289279 17.21575289 -3 25 C-2.80664062 23.86820313 -2.61328125 22.73640625 -2.4140625 21.5703125 C-2.15145714 20.08846798 -1.88841352 18.60670108 -1.625 17.125 C-1.49867187 16.37863281 -1.37234375 15.63226563 -1.2421875 14.86328125 C-0.2265625 9.2265625 -0.2265625 9.2265625 2 7 C2.35191406 7.72445312 2.70382813 8.44890625 3.06640625 9.1953125 C6.54392214 16.00506946 10.00698705 21.50349352 17 25 C14.9975234 34.84550995 10.63718703 43.19350356 6 52 C5.67 52.66 5.34 53.32 5 54 C-0.55518208 53.36346872 -2.57376304 50.80736648 -6.06640625 46.6875 C-12.69236758 37.47808304 -14.87962217 28.18012525 -14 17 C-12.62053748 10.62987051 -7.72804089 0 0 0 Z M-2 32 C-1 34 -1 34 -1 34 Z " fill="#464FA8" transform="translate(61,197)"/>
<path d="M0 0 C5.29446679 3.75573074 8.01069594 9.26230589 9.54296875 15.44921875 C10.51561654 21.84090422 9.35766746 26.96589897 6.35546875 32.63671875 C2.33046426 37.53199448 -1.79607464 42.03917295 -8.375 42.6875 C-15.11065358 42.86800412 -19.19584158 41.96994577 -24.95703125 38.44921875 C-25.28703125 38.11921875 -25.61703125 37.78921875 -25.95703125 37.44921875 C-26.28703125 43.05921875 -26.61703125 48.66921875 -26.95703125 54.44921875 C-28.93703125 54.44921875 -30.91703125 54.44921875 -32.95703125 54.44921875 C-33.1757122 49.3452589 -33.37222449 44.2410789 -33.54907227 39.13549805 C-33.6121336 37.40219847 -33.68103486 35.66910037 -33.75610352 33.9362793 C-33.86355197 31.43179289 -33.94931508 28.92731092 -34.03125 26.421875 C-34.06860764 25.65899673 -34.10596527 24.89611847 -34.14445496 24.11012268 C-34.34446592 16.79925181 -32.71734081 9.62301952 -27.70703125 4.07421875 C-20.13751402 -3.85876173 -9.64648926 -4.86592821 0 0 Z M-20.95703125 6.44921875 C-24.78591953 10.37886725 -27.24032016 14.27411177 -27.26953125 19.82421875 C-27.10575042 25.70106013 -25.32709019 29.0480221 -21.20703125 33.26171875 C-17.47131215 35.77614507 -15.44851382 36.44921875 -10.95703125 36.44921875 C-6.6520587 35.52845539 -3.7108054 34.2029929 -0.58203125 31.07421875 C2.510665 26.0783248 3.64745227 22.39330666 3.04296875 16.44921875 C1.57018724 11.98066576 -0.2277581 9.06751555 -3.83203125 6.01171875 C-10.18606728 2.83470074 -14.81393598 3.02326177 -20.95703125 6.44921875 Z " fill="#00B2FE" transform="translate(295.95703125,235.55078125)"/>
<path d="M0 0 C6.01103363 3.50336316 9.51834686 8.8333734 11.625 15.375 C12.05692182 18.10406656 12.1774459 20.80285296 12.25 23.5625 C12.40162426 29.54342947 12.40162426 29.54342947 13.625 35.375 C16.595 35.87 16.595 35.87 19.625 36.375 C19.625 38.685 19.625 40.995 19.625 43.375 C14.3175242 43.88047389 11.80168141 42.60243563 7.625 39.375 C6.965 38.715 6.305 38.055 5.625 37.375 C5.16609375 37.72433594 4.7071875 38.07367188 4.234375 38.43359375 C3.31398438 39.11615234 3.31398438 39.11615234 2.375 39.8125 C1.77171875 40.26496094 1.1684375 40.71742188 0.546875 41.18359375 C-4.21812827 44.13750838 -9.9503804 43.94687255 -15.375 43.375 C-21.54143623 41.5728373 -25.89541697 37.70518929 -29.375 32.375 C-32.43422846 26.13082136 -32.52610874 18.63479162 -30.72265625 11.9609375 C-28.12474266 6.18531843 -23.67424912 1.94915154 -17.984375 -0.765625 C-12.12068091 -2.69678173 -5.64319058 -2.56995397 0 0 Z M-21.1875 9.5 C-24.09300263 13.31866061 -25.19606039 16.58253035 -25.375 21.375 C-24.63973664 26.04430133 -23.01098947 29.49583808 -20.25 33.3125 C-16.43705295 36.04787505 -13.06613897 37.18155097 -8.375 37.375 C-2.47128069 35.80067485 0.16925808 33.15205501 3.625 28.375 C5.59936212 24.42627576 5.06329693 19.67883233 4.625 15.375 C2.46354897 10.97204419 -0.21852966 7.98487673 -4.375 5.375 C-11.25845187 3.46293004 -15.61888274 5.29260029 -21.1875 9.5 Z " fill="#00B2FE" transform="translate(240.375,234.625)"/>
<path d="M0 0 C2.96145536 2.2827885 4.48349711 3.92267001 6 7.3125 C6 7.9725 6 8.6325 6 9.3125 C4.700625 9.10625 3.40125 8.9 2.0625 8.6875 C-5.35339693 7.87128493 -11.52695902 9.66104099 -18 13.3125 C-17.28714844 13.0959375 -16.57429688 12.879375 -15.83984375 12.65625 C-10.38179283 11.06952187 -5.68441034 9.93353931 0 10.3125 C-0.38671875 10.76238281 -0.7734375 11.21226562 -1.171875 11.67578125 C-5.60465748 17.15092595 -7.8947603 22.62971347 -10 29.3125 C-10.33 30.3025 -10.66 31.2925 -11 32.3125 C-20.89613084 32.52355492 -30.2648233 32.41334738 -40 30.3125 C-36.85950175 17.36483177 -30.20348913 6.32574336 -18.625 -0.75 C-12.38994676 -2.36251377 -5.88767818 -3.06857803 0 0 Z M-21 14.3125 C-21.33 14.9725 -21.66 15.6325 -22 16.3125 C-21.01 15.9825 -20.02 15.6525 -19 15.3125 C-19.66 14.9825 -20.32 14.6525 -21 14.3125 Z " fill="#00AE57" transform="translate(55,182.6875)"/>
<path d="M0 0 C4.34784492 3.20023779 7.7095914 7.36879967 9.8203125 12.33984375 C9.8203125 13.32984375 9.8203125 14.31984375 9.8203125 15.33984375 C6.8503125 15.83484375 6.8503125 15.83484375 3.8203125 16.33984375 C3.52898437 15.79714844 3.23765625 15.25445312 2.9375 14.6953125 C0.22546762 9.96204844 -1.74313443 7.01262931 -7.1796875 5.33984375 C-11.91159345 4.6675046 -15.21185065 4.87384823 -19.5546875 6.96484375 C-23.72101001 10.73437364 -25.02280379 13.69256477 -25.5546875 19.27734375 C-25.29991787 24.82919865 -23.68380228 28.90910042 -19.6171875 32.77734375 C-15.0113506 34.87090598 -11.16086158 35.15656223 -6.1796875 34.33984375 C-2.32423952 32.34327248 -0.58163658 30.94276737 1.8203125 27.33984375 C-5.1096875 26.84484375 -5.1096875 26.84484375 -12.1796875 26.33984375 C-12.1796875 24.02984375 -12.1796875 21.71984375 -12.1796875 19.33984375 C-4.5896875 19.33984375 3.0003125 19.33984375 10.8203125 19.33984375 C9.64513223 28.74128594 7.74682925 33.39968777 0.53515625 39.1171875 C-4.43119616 42.65811758 -9.2415848 42.9742988 -15.1796875 42.33984375 C-20.83471974 41.04495265 -24.36983733 38.8028111 -28.1796875 34.33984375 C-28.7365625 33.72109375 -29.2934375 33.10234375 -29.8671875 32.46484375 C-33.82025695 26.06463607 -33.74350435 19.53340128 -32.1796875 12.33984375 C-29.55023261 5.66975935 -26.0819965 1.15487119 -19.4921875 -1.91015625 C-12.55672741 -3.4804491 -6.29622937 -3.5814584 0 0 Z " fill="#00B2FE" transform="translate(172.1796875,235.66015625)"/>
<path d="M0 0 C8.67299452 -0.83394178 16.12624397 1.84962466 22.88671875 7.34765625 C27.91863593 12.21796441 32.37115718 16.751062 33.43359375 23.9296875 C33.44267541 30.77725718 32.60213429 35.14653177 29 41 C26.62096609 38.62096609 26.07814125 36.73375141 25 33.5625 C23.88630245 30.29536384 22.92816995 27.89225493 21 25 C21.33 27.97 21.66 30.94 22 34 C21.071875 33.505 20.14375 33.01 19.1875 32.5 C14.26031562 30.340555 9.27718611 30.74234354 4 31 C1.16535231 20.87625823 -0.36264054 10.5165757 0 0 Z M17 18 C17.33 18.99 17.66 19.98 18 21 C18 20.01 18 19.02 18 18 C17.67 18 17.34 18 17 18 Z " fill="#FE9426" transform="translate(35,148)"/>
<path d="M0 0 C2.31 0 4.62 0 7 0 C7 4.29 7 8.58 7 13 C7.78375 12.505 8.5675 12.01 9.375 11.5 C15.1259663 9.12028981 20.42655397 9.12599946 26.3125 11.125 C30.43843192 14.00355716 33.37787651 17.13362953 35 22 C35.0846817 24.51368055 35.11601885 26.99869374 35.09765625 29.51171875 C35.0962413 30.23994339 35.09482635 30.96816803 35.09336853 31.71846008 C35.08777659 34.04151539 35.07522562 36.36447388 35.0625 38.6875 C35.05748396 40.26367048 35.05292123 41.83984248 35.04882812 43.41601562 C35.0378098 47.27738098 35.02055074 51.13867408 35 55 C33.02 55 31.04 55 29 55 C28.98541748 54.11739502 28.97083496 53.23479004 28.95581055 52.32543945 C28.89457933 49.03561357 28.8203967 45.7466007 28.73754883 42.45727539 C28.70439443 41.03648798 28.67633308 39.61557187 28.65356445 38.19458008 C28.61984153 36.1460918 28.56752255 34.0987728 28.51171875 32.05078125 C28.48553467 30.82012939 28.45935059 29.58947754 28.43237305 28.3215332 C27.96683474 24.74522115 27.16453099 22.85592962 25 20 C21.28004984 17.52003323 18.30573798 17.58247389 14 18 C11.39935254 18.82125709 10.41632432 19.36918266 8.92431641 21.62988281 C7.66552416 24.85765754 7.67102944 27.71146953 7.5859375 31.171875 C7.56657135 31.8542926 7.5472052 32.53671021 7.5272522 33.23980713 C7.46768902 35.40974608 7.42116554 37.57973877 7.375 39.75 C7.33679869 41.22528297 7.2977457 42.70054415 7.2578125 44.17578125 C7.16200765 47.78365418 7.07789084 51.39169083 7 55 C4.69 55 2.38 55 0 55 C0 36.85 0 18.7 0 0 Z " fill="#00B2FE" transform="translate(308,223)"/>
<path d="M0 0 C2.86091834 2.2967936 3.69493894 4.88343481 4.6640625 8.3359375 C4.8515625 11.2734375 4.8515625 11.2734375 4.6640625 13.3359375 C3.0140625 13.6659375 1.3640625 13.9959375 -0.3359375 14.3359375 C-0.9959375 11.6959375 -1.6559375 9.0559375 -2.3359375 6.3359375 C-7.95632508 4.52752576 -12.11364621 3.8141187 -17.609375 6.27734375 C-21.28736339 8.53239998 -23.00117904 11.33166213 -24.3359375 15.3359375 C-24.90024614 21.03328439 -24.62180128 25.46379466 -21.3359375 30.3359375 C-17.99921506 33.86332979 -15.06499004 35.07721948 -10.328125 35.42578125 C-6.94824536 35.27335531 -5.0331288 34.34314963 -2.3359375 32.3359375 C-0.9813269 30.03054361 -0.20419127 27.8924625 0.6640625 25.3359375 C2.3140625 25.3359375 3.9640625 25.3359375 5.6640625 25.3359375 C6.98959912 28.98116321 6.69287144 30.27025312 5.1015625 33.8984375 C2.31567871 38.3384398 -1.39705952 40.68964484 -6.3359375 42.3359375 C-13.1165659 43.07060594 -18.81118432 42.55656439 -24.3359375 38.3359375 C-29.66688978 32.9812921 -32.20357685 27.44009501 -32.3984375 19.92578125 C-32.04818628 12.84413941 -29.84708657 6.62714882 -24.58984375 1.69921875 C-17.19462014 -3.85117489 -8.10374261 -4.55230162 0 0 Z " fill="#00B2FE" transform="translate(387.3359375,235.6640625)"/>
<path d="M0 0 C0.639375 0.33 1.27875 0.66 1.9375 1 C1.1875 5.75 1.1875 5.75 -1.0625 8 C-2.0525 7.34 -3.0425 6.68 -4.0625 6 C-8.21026273 5.71337567 -8.21026273 5.71337567 -12.0625 7 C-12.73262422 9.7859186 -12.73262422 9.7859186 -12.0625 13 C-8.7676547 15.95060773 -4.69100478 17.6916769 -0.75 19.625 C1.79981672 20.92955739 3.14369133 21.82216469 4.9375 24 C6.23959126 28.32656904 6.26109631 32.04718866 4.8125 36.3125 C2.09551362 40.20684715 -0.54836997 42.49528999 -5.0625 44 C-11.1681733 44.59859542 -14.92619785 42.98839398 -20.0625 40 C-20.0625 36 -20.0625 36 -18.0625 33 C-15.0625 34.5 -15.0625 34.5 -12.0625 36 C-7.37878934 36.43840793 -7.37878934 36.43840793 -3.125 34.8125 C-1.67531566 32.33950907 -1.63932677 30.82115488 -2.0625 28 C-5.0978066 24.09746294 -9.86231806 22.6633169 -14.25 20.6953125 C-17.43785025 18.77374721 -18.59135241 17.39337876 -20.0625 14 C-20.48985657 9.46225027 -19.58952493 5.84323989 -17.1875 2 C-12.60739001 -2.31069175 -5.69110599 -1.85832032 0 0 Z " fill="#00B2FE" transform="translate(413.0625,234)"/>
<path d="M0 0 C1.75029762 0.31082872 3.50022694 0.62373179 5.25 0.9375 C6.71179688 1.19853516 6.71179688 1.19853516 8.203125 1.46484375 C10.49721795 1.90379729 12.74291971 2.40348592 15 3 C14.03984533 16.6695704 13.01582045 30.33447954 12 44 C4.375 43.125 4.375 43.125 1 42 C0.03150877 32.73655058 -0.12190023 23.55678381 -0.0625 14.25 C-0.05746857 12.85937663 -0.0529086 11.46875148 -0.04882812 10.078125 C-0.03716347 6.71870295 -0.02079614 3.35937581 0 0 Z " fill="#FE0075" transform="translate(400,154)"/>
<path d="M0 0 C1.63001953 0.01353516 1.63001953 0.01353516 3.29296875 0.02734375 C4.12441406 0.03894531 4.95585937 0.05054688 5.8125 0.0625 C5.8125 2.3725 5.8125 4.6825 5.8125 7.0625 C5.07644531 7.08828125 4.34039062 7.1140625 3.58203125 7.140625 C-2.662163 7.4745839 -2.662163 7.4745839 -8.3125 9.9375 C-11.58388454 13.64506915 -11.36309733 17.15058107 -11.50390625 21.91796875 C-11.52468735 22.57960526 -11.54546844 23.24124176 -11.56687927 23.92292786 C-11.63214727 26.03184852 -11.69115344 28.14089135 -11.75 30.25 C-11.79320689 31.68165315 -11.83682188 33.11329404 -11.88085938 34.54492188 C-11.98780506 38.05065154 -12.08913641 41.55651786 -12.1875 45.0625 C-14.18704746 45.10504356 -16.18791636 45.10330783 -18.1875 45.0625 C-20.84162545 42.40837455 -19.37314309 34.6314758 -19.375 31.0625 C-19.38724609 29.85464844 -19.39949219 28.64679688 -19.41210938 27.40234375 C-19.43893234 10.96880756 -19.43893234 10.96880756 -15.34765625 5.6875 C-14.30931641 4.883125 -14.30931641 4.883125 -13.25 4.0625 C-12.56035156 3.505625 -11.87070313 2.94875 -11.16015625 2.375 C-7.45526489 -0.09003663 -4.32927486 -0.04655134 0 0 Z " fill="#00B2FE" transform="translate(204.1875,232.9375)"/>
<path d="M0 0 C2.31 0 4.62 0 7 0 C7 14.85 7 29.7 7 45 C5.02 45 3.04 45 1 45 C0.67 30.15 0.34 15.3 0 0 Z " fill="#00B2FD" transform="translate(346,233)"/>
<path d="M0 0 C0.66 0.33 1.32 0.66 2 1 C1.7525 1.66 1.505 2.32 1.25 3 C0.87834442 7.45986702 2.5031608 10.36500049 5 14 C9.56605697 18.91147972 13.91790803 21.72069556 20.70703125 22.3359375 C29.56661004 22.53336544 36.11889041 22.23986578 42.9921875 16.26953125 C47.22085008 12.0153948 48.79441349 8.68292245 49.02734375 2.6875 C49.01832031 2.130625 49.00929688 1.57375 49 1 C53.75 1.75 53.75 1.75 56 4 C56 4.99 56 5.98 56 7 C55.01 7 54.02 7 53 7 C52.76925781 7.51949219 52.53851563 8.03898438 52.30078125 8.57421875 C48.63541375 16.4120204 43.53873128 20.89943487 36 25 C28.61096766 27.46301078 18.54325376 27.26776948 11.4375 24 C4.69677584 19.99414877 0.04222979 14.15818775 -3 7 C-3.99 7 -4.98 7 -6 7 C-4.60667426 3.63279613 -3.0210714 2.0140476 0 0 Z " fill="#161402" transform="translate(234,176)"/>
<path d="M0 0 C2.375 1.5625 2.375 1.5625 4 4 C4.56783945 7.97487617 4.62340519 10.06489221 2.375 13.4375 C-0.71685231 15.47161336 -2.36367425 15.60605429 -6 15 C-8.375 13.4375 -8.375 13.4375 -10 11 C-10.56783945 7.02512383 -10.62340519 4.93510779 -8.375 1.5625 C-5.28314769 -0.47161336 -3.63632575 -0.60605429 0 0 Z " fill="#FE0074" transform="translate(409,202)"/>
<path d="M0 0 C3.375 0.3125 3.375 0.3125 7 1 C9.46507954 4.69761931 9.67613492 7.70946484 9 12 C7.3125 15 7.3125 15 5 17 C2.4375 17.625 2.4375 17.625 0 17 C-2.56807522 14.16626183 -3.21502349 11.65869271 -3.375 7.9375 C-3.00799083 4.08390374 -2.67555523 2.67555523 0 0 Z " fill="#060500" transform="translate(245,155)"/>
<path d="M0 0 C2.28276734 1.81047065 2.90092778 3.26035125 3.28515625 6.12890625 C3.42007484 9.68958376 3.32244674 12.30419387 1.8125 15.5625 C0 17 0 17 -2.5 17.4375 C-5.4615936 16.91922112 -6.15409125 16.31643451 -8 14 C-8.58203125 11.87890625 -8.58203125 11.87890625 -8.8125 9.5625 C-8.94591797 8.41974609 -8.94591797 8.41974609 -9.08203125 7.25390625 C-8.98709243 4.64534923 -8.39947652 3.18818493 -7 1 C-4.4254716 -0.2872642 -2.85291355 -0.34791629 0 0 Z " fill="#070600" transform="translate(273,155)"/>
</svg>
