<svg version="1.1" xmlns="http://www.w3.org/2000/svg" xmlns:xlink="http://www.w3.org/1999/xlink" width="700" height="700" viewBox="418,15,700,700"><g id="document" fill="#ffffff" fill-rule="nonzero" stroke="#000000" stroke-width="0" stroke-linecap="butt" stroke-linejoin="miter" stroke-miterlimit="10" stroke-dasharray="" stroke-dashoffset="0" font-family="none" font-weight="none" font-size="none" text-anchor="none" style="mix-blend-mode: normal"><rect x="418" y="10.71429" transform="scale(1,1.4)" width="700" height="500" id="Shape 1 1" vector-effect="non-scaling-stroke"/></g><g fill="none" fill-rule="nonzero" stroke="none" stroke-width="1" stroke-linecap="butt" stroke-linejoin="miter" stroke-miterlimit="10" stroke-dasharray="" stroke-dashoffset="0" font-family="none" font-weight="none" font-size="none" text-anchor="none" style="mix-blend-mode: normal"><g id="stage"><g id="layer1 1"><path d="M515.59802,342.57756c0.00979,2.54619 -1.8605,5.82356 -2.56423,8.34616c-5.00666,17.94451 -3.95278,38.95145 4.39134,55.56715c-3.84313,-18.29449 -3.90184,-36.57701 2.31088,-54.26411c0.23346,2.22996 0.76646,4.36912 1.51708,6.46185c3.98044,11.1 12.25911,19.34302 22.22993,24.06252l-1.30083,3.3667c-4.4453,14.72921 -11.35871,29.46456 -18.97043,42.59263c-9.80114,-5.21399 -18.04167,-16.10884 -22.87496,-26.44858c-5.47189,-11.70595 -7.31519,-25.70721 -3.3715,-38.29069c3.13839,-10.01335 9.26408,-16.91231 17.90877,-21.58859z" id="Path 1" fill="#4750a8"/><path d="M502.25601,317.89492c6.90362,2.83154 11.13605,7.61601 14.1014,14.7724c-7.84382,-2.36466 -15.60903,-3.03087 -23.60904,-1.01404c-13.01376,3.28101 -25.03064,12.95308 -32.04929,25.11504c7.39816,-8.74478 18.19247,-15.60599 28.77965,-18.68625c3.29189,-0.95777 13.82004,-3.45928 16.57487,-1.75325c-10.40061,8.25973 -15.2882,19.96788 -17.43951,33.35554c-11.21129,1.18395 -33.61063,-0.8728 -44.89859,-3.50286c3.34889,-10.46681 7.4457,-20.36435 13.94762,-29.06338c7.61147,-10.18361 18.28199,-19.59463 30.7381,-21.02258c4.76176,-0.47707 9.36122,-0.04427 13.85479,1.79938z" id="Path 1" fill="#00ae58"/><path d="M514.23646,278.93405c7.2089,6.61213 12.6754,14.37883 13.42533,24.88231c0.55293,7.74928 -1.81767,16.90467 -6.45391,23.00925c-0.13832,0.18225 -0.35895,0.40881 -0.50468,0.56566l-0.38188,-0.13252c-0.17609,-1.47332 -0.60656,-2.96406 -0.9446,-4.40579l-0.28541,-1.1168c-5.54609,-19.86839 -14.60776,-33.79812 -31.02745,-44.81424c6.96872,6.89172 12.7874,13.98092 17.36325,22.97332c2.01064,3.95124 6.00524,13.13281 4.85047,17.37739c-5.61087,-5.54001 -12.40887,-7.86472 -19.96426,-7.49658c-2.88437,0.14087 -5.71207,0.75009 -8.52256,1.43338c-2.24745,-14.05826 -5.98734,-34.15611 -6.09496,-47.91627c13.70567,-1.16799 28.31208,6.25891 38.54066,15.64089z" id="Path 1" fill="#fe9427"/><path d="M872.36923,400.34199c6.78082,-1.56409 16.42238,1.16435 22.12029,5.092c7.4083,5.10833 12.94089,13.33647 14.76936,22.63313c1.89256,9.30209 0.22602,19.03261 -4.62176,26.99754c-4.83092,8.08655 -12.48547,13.73767 -21.23306,15.67679c-9.68544,2.04659 -19.31689,-0.1997 -27.45722,-6.13979c-1.71714,-1.4225 -3.2015,-3.20514 -4.7162,-4.86872c-0.15181,10.51872 -0.01686,21.06468 -0.01686,31.58633c-3.01594,0.05409 -6.03863,0.01851 -9.05457,0.02433c0.4723,-13.6106 0.41495,-27.58099 0.20241,-41.20609c-0.10794,-6.79114 -1.28869,-12.95598 -0.14507,-19.79685c1.08628,-6.52647 3.60968,-12.53991 7.60396,-17.61086c5.77888,-7.34119 13.66958,-11.60539 22.54874,-12.3878zM877.7163,462.52601c13.64259,-1.08773 23.91163,-13.81718 23.00077,-28.50717c-0.90747,-14.68998 -12.66089,-25.8379 -26.31698,-24.96545c-13.79777,0.88152 -24.28946,13.69046 -23.36849,28.53365c0.92097,14.84284 12.89704,26.03831 26.68468,24.93896z" id="CompoundPath 1" fill="#00b2fe"/><path d="M784.87653,400.31223c9.8676,-0.90149 19.3641,1.20102 27.10299,8.21617c7.49938,6.82744 11.8445,16.84659 11.8951,27.41797c0.05398,4.46933 -0.4858,9.0712 -0.11807,13.51584c0.2665,3.24253 1.32579,7.17561 3.77837,9.29882c2.82028,2.43617 6.30852,2.27897 9.69218,1.92753c0.01011,3.44186 -0.00336,6.88371 -0.0371,10.32522c-3.97404,0.04864 -7.98179,0.06135 -11.71968,-1.61238c-4.90512,-2.19546 -7.38131,-6.34819 -9.30422,-11.43221c-1.15376,1.61528 -2.46605,3.0189 -3.80534,4.45119c-4.46656,4.50528 -10.08351,7.46972 -16.1255,8.51134c-9.14566,1.55792 -19.36749,-0.42732 -26.90733,-6.33332c-7.11816,-5.5774 -12.16902,-13.90612 -13.43074,-23.34982c-1.28128,-9.58891 0.77862,-19.3935 6.29569,-27.12243c5.56297,-7.7972 13.69319,-12.51595 22.68367,-13.81391zM791.69445,462.41381c13.73704,-1.20975 23.93862,-14.21474 22.7444,-28.99222c-1.19761,-14.77785 -13.3356,-25.68796 -27.05915,-24.32211c-13.62235,1.3557 -23.66873,14.30043 -22.48126,28.96789c1.1875,14.66748 13.16018,25.54709 26.796,24.34644z" id="CompoundPath 1" fill="#00b2fe"/><path d="M695.20247,405.21324c7.98011,4.86579 13.83455,12.948 16.27193,22.46431l-8.99992,1.5855c-3.38972,-7.83241 -7.3641,-14.11562 -15.07432,-17.59269c-6.29569,-2.83881 -13.78361,-2.74586 -20.07322,0.08569c-5.75965,2.65328 -10.29774,7.67048 -12.60725,13.93843c-2.40095,6.36853 -2.48224,13.46537 0.0172,19.81175c2.5757,6.53916 7.43123,12.07047 13.6048,14.70777c6.24915,2.66927 13.91888,2.59228 20.0901,-0.30243c6.03255,-2.80468 10.78148,-8.0753 13.20099,-14.65078l-4.50873,0.00763l-19.73452,-0.02832c-0.12042,-3.04502 -0.15315,-6.09841 -0.21895,-9.14561l35.46701,-0.03122c-0.35084,7.14149 -2.63675,14.01576 -6.57604,19.77507c-5.2607,7.84148 -13.42127,13.60369 -22.35508,15.10171c-9.13285,1.53178 -18.97144,-0.58055 -26.4708,-6.52355c-7.1546,-5.5636 -11.92681,-13.99364 -13.23945,-23.38758c-1.24855,-9.62957 1.14058,-19.39568 6.63373,-27.1148c5.8713,-8.31057 13.4955,-12.17358 22.89283,-13.59789c7.4056,-1.04744 15.25648,0.91563 21.67969,4.89701z" id="Path 1" fill="#00b2fe"/><path d="M915.98569,384.00696c3.07667,-0.18443 6.21405,-0.00109 9.29747,0.05699c-0.07084,7.69553 -0.0506,15.39215 0.06748,23.08696c5.38417,-4.48241 10.54906,-7.04745 17.49853,-7.19995c7.44204,-0.16302 15.04936,2.00811 20.47737,7.73909c3.28583,3.50286 5.57983,7.93371 6.62562,12.78099c1.52484,6.80965 0.93785,14.68527 0.94121,21.6543c-0.03374,9.51195 -0.00675,19.02389 0.08097,28.53549l-8.99723,-0.01162l-0.08097,-44.0391c-0.32723,-4.30886 -1.73061,-8.32837 -4.54415,-11.46814c-3.69402,-4.12405 -9.00059,-5.7317 -14.20598,-5.7466c-4.83428,-0.01415 -9.74953,1.68063 -13.18379,5.45398c-1.93305,2.13882 -3.30944,4.78556 -3.99426,7.6763c-1.44387,6.34202 -0.81639,13.8404 -0.8029,20.33238l0.09108,27.79048l-9.2165,-0.03377z" id="Path 1" fill="#00b2fe"/><path d="M1025.10953,400.13942c6.83142,0.02795 15.1438,2.73788 19.98147,8.15154c4.15282,4.64796 3.59282,10.93008 3.48824,16.88653c-1.85544,-0.01199 -3.62656,0.17209 -5.46514,0.42588c-0.35084,-3.06063 -0.82652,-6.02254 -2.37161,-8.67981c-2.40196,-4.13206 -6.89551,-6.23564 -11.15966,-7.27183c-5.6979,-1.38436 -13.12306,0.40336 -18.00457,3.73522c-5.34368,3.64735 -9.04783,9.7748 -10.42424,16.38079c-1.45736,7.00825 -0.31038,14.78256 3.31282,20.83594c3.44101,5.75676 8.86227,9.80967 15.07296,11.26919c6.61213,1.50781 12.74859,0.36961 18.36554,-3.62847c3.86607,-3.50177 5.9172,-7.39347 6.60202,-12.78389c2.78654,0.43567 5.57983,0.56819 8.39,0.72358c-0.61398,4.55573 -1.7846,8.8715 -4.23041,12.69929c-4.23716,6.62777 -11.05846,10.58191 -18.31156,11.97862c-8.6565,1.70605 -17.58625,-0.38158 -24.80563,-5.79851c-7.189,-5.50515 -12.01317,-13.89343 -13.3862,-23.27177c-1.41013,-9.70074 0.74555,-19.95698 6.21744,-27.85438c5.57308,-8.04554 12.93753,-12.19682 22.02582,-13.62839c1.51135,-0.21023 3.17787,-0.17607 4.70271,-0.16953z" id="Path 1" fill="#00b2fe"/><path d="M1086.59227,404.91806c-1.29208,2.57741 -2.56389,5.1657 -3.81884,7.76452c-3.02269,-2.16206 -6.20056,-4.04746 -9.90809,-4.19812c-3.188,-0.12962 -6.68299,0.49231 -9.07143,2.94882c-1.57208,1.61491 -2.44581,3.72615 -2.46269,6.07626c-0.09783,11.98949 19.92412,12.39216 27.04565,20.27103c3.05643,3.37904 4.12247,7.7017 3.98415,12.33043c-0.16192,5.49573 -2.41207,11.06188 -6.19719,14.78657c-5.735,5.64131 -12.42136,6.41028 -19.80605,6.07807c-6.2714,-0.85684 -11.31822,-3.77298 -16.10865,-8.04806c2.02075,-2.75277 3.82897,-5.53711 5.50224,-8.54692c1.42026,1.88867 3.14413,3.4847 5.09403,4.7104c3.99428,2.52949 9.10517,3.54571 13.62235,2.23248c2.89451,-0.84123 5.85308,-2.80503 7.36106,-5.66708c1.25495,-2.38644 1.75761,-5.2659 1.06604,-7.93262c-2.26701,-8.77457 -14.76597,-10.15021 -21.29376,-14.12868c-3.93017,-2.39588 -7.41166,-5.74114 -8.58228,-10.60114c-1.10314,-4.59278 -0.36097,-10.41235 1.96002,-14.458c2.93161,-5.10833 7.67141,-7.34119 12.90715,-8.62245c7.1148,-0.6793 12.68116,0.96323 18.70629,5.00449z" id="Path 1" fill="#00b2fe"/><path d="M756.51216,400.59831l-0.03307,10.2181c-2.91574,-0.70363 -5.90335,-1.1836 -8.89468,-1.24895c-5.58252,-0.12199 -11.35094,1.17161 -15.44911,5.52041c-2.21609,2.38136 -3.75845,5.39079 -4.44802,8.67835c-1.20705,5.50443 -0.56338,12.13111 -0.51986,17.79492c0.06511,7.35898 0.09479,14.71793 0.0894,22.07691l-0.0506,6.9999l-9.13723,-0.03377l-0.03542,-28.52315c-0.02462,-6.71234 -0.6096,-14.06988 0.66729,-20.65768c0.77894,-4.17235 2.52273,-8.06657 5.07008,-11.32219c4.84945,-6.17936 12.05094,-9.13545 19.39144,-9.76065c3.90621,-0.93016 9.31975,-0.00469 13.34978,0.2578z" id="Path 1" fill="#00b2fe"/><path d="M977.39423,400.58815c3.02605,-0.09803 6.07237,-0.03159 9.10181,-0.03776c0.19566,15.7908 0.04049,31.59939 0.03374,47.39274c0,7.33574 0.72869,15.43898 -0.09447,22.6952l-8.76783,-0.02178z" id="Path 1" fill="#00b2fe"/><path d="M1086.51468,278.86069c-0.61398,7.68572 -2.16243,15.45425 -3.07329,23.12544c-1.37303,11.51388 -2.04099,22.98638 -2.49305,34.57943c0.0135,2.10504 -0.18892,4.14839 -0.41157,6.23529c-5.12102,-1.60983 -10.3534,-2.76764 -15.44405,-4.49802c0.02361,-7.78885 -0.62411,-15.53993 -0.9311,-23.31714c-0.57013,-14.05244 -0.91422,-28.11432 -1.03568,-42.17912c7.72878,2.2394 15.6161,3.97702 23.38874,6.05412z" id="Path 1" fill="#fe0176"/><path d="M775.36315,326.9803c-5.62368,-14.38175 -5.52923,-29.92057 -0.02024,-44.31974c6.61887,-16.99472 19.2764,-30.43722 35.15565,-37.33654c16.6248,-7.28744 35.23998,-7.29108 51.86814,-0.00981c16.17274,7.25768 28.41531,21.03745 35.06456,38.41486c3.62656,10.84113 4.32824,20.42714 2.81353,31.80488c-0.53639,2.40532 -1.14362,4.82587 -1.89256,7.16511c-5.55284,17.29497 -17.27252,29.22784 -32.28475,37.13977c0.78604,3.69019 1.2111,7.51328 1.60243,11.27281c0.14168,1.3604 0.74894,4.99289 -0.14507,6.00908c-2.53015,2.88928 -13.10281,4.87053 -16.86769,5.10652c-0.40821,1.86907 -1.06267,3.64807 -2.08148,5.23721c-2.22316,3.46329 -6.1331,4.90792 -9.83048,5.56179c-4.03138,0.7127 -8.1977,0.12997 -11.53751,-2.54401c-2.57402,-2.06039 -3.96729,-4.75181 -4.41935,-8.12686c-3.41065,-0.81434 -13.21753,-2.20525 -15.16743,-5.23976c-1.9634,-3.05592 -0.39807,-11.9808 0.17206,-15.5715c-13.87874,-7.19122 -26.36758,-19.06273 -32.42981,-34.56381z" id="Path 1" fill="#fefefe"/><path d="M875.61119,260.62065c11.34857,10.02495 18.51736,24.50327 19.91737,40.23127c1.19761,13.88035 -3.65691,27.51092 -11.85461,38.09427c-10.2117,13.18544 -25.17333,20.13197 -40.81306,21.64922c-16.75298,1.62799 -32.83464,-1.82405 -46.28495,-13.06201c-10.48833,-8.76185 -17.83251,-21.86562 -19.48892,-36.11374c-1.70365,-14.65331 2.70895,-29.35675 11.08545,-40.92544c10.45459,-14.44345 25.62539,-22.60808 42.31091,-24.8333c16.2942,-1.67156 32.53439,3.71195 45.12781,14.95973z" id="Path 1" fill="#fee31f"/><path d="M875.4223,308.05297c0.39133,0.15502 0.76916,0.32604 1.14026,0.53843c1.34604,0.77405 9.43579,5.89401 9.63145,6.73814c0.32387,1.38147 -0.86363,2.99491 -1.53495,4.08847c-1.34604,-0.54569 -2.65161,-1.53648 -3.88968,-2.32761c-0.70845,2.68522 -1.66652,5.2855 -2.86751,7.76015c-5.36056,11.04699 -15.20792,19.25989 -26.16853,22.97622c-12.18859,4.13131 -27.41337,3.10711 -38.76533,-3.32096c-10.28928,-5.8243 -17.96408,-15.11586 -21.45233,-27.1199c-0.99181,0.6644 -2.71906,2.088 -3.86946,2.1381c-0.51615,0.02215 -0.97832,-0.27594 -1.32918,-0.69345c-0.43856,-0.5221 -0.56338,-1.1284 -0.4723,-1.8037c0.38122,-2.74078 8.14371,-7.51581 10.26904,-9.17465c0.55664,0.34963 1.13688,0.99226 1.49449,1.56446c0.38796,0.61938 0.5465,1.23006 0.43518,1.96601c-0.23951,1.57281 -1.74749,2.59302 -2.83714,3.50938c0.49591,1.60693 1.02555,3.18517 1.66316,4.73218c4.33499,10.51255 12.138,18.77303 22.15403,22.8724c11.15966,4.56626 25.46685,4.10118 36.33637,-1.22897c10.82906,-5.31093 17.57614,-14.44856 21.65812,-26.25615c-1.09978,-1.14983 -2.38847,-2.15116 -3.58607,-3.18517c0.46555,-1.23044 0.93109,-3.02185 1.99038,-3.77338z" id="Path 1" fill="#000000"/><path d="M820.19407,273.70408c2.65836,0.86881 4.73645,2.90888 6.01503,5.53129c1.9263,3.94869 2.18606,9.04506 0.9311,13.26495c-1.25834,4.22426 -3.57258,6.87209 -7.19914,8.83701c-1.734,0.43604 -3.25209,0.42261 -4.94899,-0.17246c-2.58077,-0.90585 -4.41596,-2.97313 -5.57647,-5.56288c-1.93305,-4.30814 -2.10847,-9.80749 -0.60048,-14.29351c1.28533,-3.83069 3.33981,-6.05993 6.7302,-7.74202c1.59232,-0.2222 3.08345,-0.37429 4.64875,0.13762z" id="Path 1" fill="#000000"/><path d="M858.19361,274.5976c2.83377,1.86397 4.51718,5.08328 5.22224,8.5037c0.93785,4.53142 0.33398,9.6913 -2.02413,13.62765c-1.72389,2.8762 -3.86271,4.27617 -6.91912,4.99613c-1.80484,-0.23961 -3.37353,-0.5751 -4.89501,-1.71331c-2.88437,-2.15624 -4.68585,-5.70085 -5.30658,-9.37326c-0.71181,-4.24133 -0.0506,-9.22223 2.27039,-12.80458c1.79473,-2.76474 4.07523,-4.06233 7.10805,-4.62328c1.65303,0.10529 3.12053,0.44878 4.54416,1.38695z" id="Path 1" fill="#000000"/><path d="M589.72781,284.43848c11.45115,-4.30269 23.43632,-6.94217 34.86957,-11.36213c7.07162,15.67897 13.43477,33.01825 19.93525,49.12419c8.99857,-12.93239 18.56459,-25.48574 27.89242,-38.14908c9.65202,13.0021 19.40256,25.91923 29.25059,38.74997c2.86514,-5.89364 5.2256,-12.15616 7.75543,-18.22697c4.3377,-10.41344 8.72769,-20.80182 13.16893,-31.16444c10.12837,3.83505 20.27531,7.61274 30.44044,11.33381l1.40306,0.66512c0.38594,1.34697 -0.37108,2.78471 -0.96348,3.98683l-30.18777,62.67923c-4.76715,9.91857 -9.28061,20.20276 -14.50419,29.83526c-4.62883,-5.39478 -8.83934,-11.31057 -13.16658,-16.98964l-23.49097,-30.95639c-12.99453,15.69314 -25.81532,31.55218 -38.459,47.5739c-5.91954,-10.04529 -9.62977,-21.46442 -14.96838,-31.85137c-1.53495,-4.95257 -4.40753,-10.04056 -6.53387,-14.78365l-14.36283,-31.93522c-2.73088,-6.05594 -5.92461,-12.21823 -8.07861,-18.5294zM603.52928,288.74843c4.3947,7.82151 7.52939,17.02959 11.04833,25.37572c6.41513,14.84394 12.72634,29.73941 18.93263,44.68571c1.57309,-0.63972 3.18968,-1.23115 4.67942,-2.07456c-2.67252,-6.80893 -5.69353,-13.47117 -8.52122,-20.20858l-20.66495,-49.44696l-0.32961,-0.12162c-1.70837,0.57946 -3.47576,1.09209 -5.14465,1.79027z" id="CompoundPath 1" fill="#fe0176"/><path d="M915.72932,280.49921c6.34226,-2.03789 12.66764,-4.13169 18.97952,-6.28103c5.84972,15.74976 11.58472,32.76664 18.16313,48.07674c2.69884,-4.82803 6.27814,-9.28031 9.49652,-13.72243c5.63717,-7.81425 11.35871,-15.55626 17.16457,-23.22493c9.62132,12.33296 18.60505,25.28423 27.76421,38.0144l11.27098,-30.63146c2.26028,-6.13325 4.37886,-12.41756 6.9731,-18.39326c7.2531,2.4358 15.13369,4.41959 22.06969,7.71042l-29.17097,74.52642c-2.7528,6.85249 -5.36731,13.82407 -8.34276,20.56548c-4.14271,-5.48047 -8.01889,-11.20637 -12.28306,-16.57392c-6.1702,-8.91325 -13.16018,-17.17226 -19.24941,-26.15921c-6.97985,8.38573 -13.86525,16.85784 -20.66293,25.41457c-3.72775,4.78846 -11.33508,13.28094 -13.94283,18.27489c-0.62411,0.75264 -1.06604,1.59893 -2.00389,1.79027l-0.74219,-0.66478c-0.69495,-3.18772 -7.1654,-15.97741 -8.91626,-19.99583c-9.08493,-20.67837 -18.06192,-41.41158 -26.92757,-62.19891c-1.23809,-3.8296 -3.27908,-7.61857 -4.74319,-11.38971c4.84103,-2.03789 10.12736,-3.46255 15.10334,-5.13775zM913.19579,290.14476c7.70854,17.47432 14.64454,35.42247 21.93474,53.11101c2.42221,5.88167 4.68921,11.88604 7.31383,17.66495l4.58127,-2.04079c-3.36678,-6.70944 -27.57193,-69.2449 -29.09339,-70.08068c-1.57882,0.45128 -3.15426,0.92692 -4.73645,1.34551z" id="CompoundPath 1" fill="#fe0176"/><path d="M570.45544,329.02869c1.14128,0.13651 1.54002,0.63028 2.42423,1.37349l8.05196,7.36914c2.14522,2.63403 4.73711,4.91228 7.06351,7.36696c4.0081,4.23915 7.85158,8.6551 11.52063,13.23663c0.94594,1.13204 2.49539,2.54728 2.53959,4.11208l-0.62916,0.66151c-2.74875,2.21905 -5.54238,4.40616 -8.48511,6.32098c-12.27664,7.98743 -26.93331,12.48292 -41.15614,8.69542c-8.6086,-2.2924 -16.5914,-7.63963 -21.18785,-15.96616c-4.02429,-7.29034 -4.89805,-14.77386 -2.97916,-22.91306l2.60843,3.45058c9.23101,11.43038 25.12105,18.26292 38.9205,19.31217c5.05322,0.38413 10.14997,-0.05665 15.13303,-0.98718c-4.43215,-0.29626 -8.80661,-0.59433 -13.17974,-1.47803c-9.82071,-1.98415 -25.03301,-7.61311 -31.89209,-15.87686c-0.04115,-0.04938 -0.08063,-0.10058 -0.12111,-0.15068c2.6877,-1.14837 6.39016,-1.00316 9.28534,-1.56191c6.66544,-0.72286 14.17661,-5.99711 19.17991,-10.58843c0.91793,-0.87825 1.7812,-1.81028 2.90323,-2.37665z" id="Path 1" fill="#62cbf8"/><path d="M569.87657,257.44384c4.96449,18.9335 7.86068,42.00158 -1.42666,59.94826c-0.50199,0.95957 -1.02995,1.90319 -1.58285,2.82936c-8.12955,9.41828 -10.16515,11.30913 -22.38276,13.76381c-5.12879,0.35761 -9.63348,-0.60196 -14.33213,-2.73206c4.71114,-3.34782 9.51946,-5.90598 13.82713,-9.9549c11.66975,-10.9671 18.10342,-27.47353 19.14382,-43.89206c-4.82619,18.25021 -13.44085,32.87775 -28.62245,43.20042c0.27461,-1.50454 0.53303,-3.01236 0.77558,-4.52307c1.85984,-12.07919 -1.66383,-21.55737 -8.06815,-31.20473c1.45904,-1.09427 2.88741,-2.20743 4.28372,-3.39322c12.33198,-9.07918 25.19488,-16.54305 38.38475,-24.04181z" id="Path 1" fill="#fe0176"/><path d="M1072.64943,350.25132c4.1562,0.09114 7.88732,2.7662 9.56736,6.85975c2.00389,4.88069 0.62748,10.60332 -3.32293,13.82662c-3.95379,3.2233 -9.44254,3.10238 -13.26812,-0.29155c-3.82559,-3.39431 -4.98271,-9.17247 -2.79667,-13.96132c1.83183,-4.01624 5.66415,-6.52499 9.82036,-6.4335z" id="Path 1" fill="#fe0176"/></g></g></g></svg>